<svg xmlns="http://www.w3.org/2000/svg" viewBox="6039.91 318.88 1258.65 979.61"><g fill="#fff"><path d="M6737.11 319.93c2.69-1.49 5.89-.88 8.91-1.02 9.29 0 18.58.08 27.89.04-.35 1.36-.66 2.72-.79 4.09 2.2-.47 3.56-2.26 4.82-4.04 44-.03 88.01-.02 132.02-.05 8.68.22 17.44-.51 26.12.42-2.67 2.64-6.67 3.62-8.59 7.07 1.18.77 2.86 1.4 4.11.1 2.14-2.49 4.08-5.17 6.36-7.59 94.03-.04 188.06.01 282.09-.03 1.14.17 3.06-.38 3.78 1.14 3.34 4.68 6.16 9.72 9.7 14.29-1.14.82-2.16 1.64-3.12 2.45-.09 1.07-.08 2.14.04 3.22-2.11 1.74-4.23 3.44-6.56 4.76-3.44 1.52-6.73 3.31-10.06 4.94-1.41.66-2.76 1.32-4.02 1.98-2.69 1.36-5.36 2.7-8 4.01-.5.24-1.51.74-2.01.99a148 148 0 0 0-4.73 2.4c-2.45 1.18-4.84 2.4-7.19 3.62-.52.24-1.55.72-2.07.96-2.69 1.38-5.35 2.73-8 4.02-3.36 1.67-6.67 3.37-9.99 5-2.95 1.46-5.87 2.91-8.72 4.44-1.22.5-2.3 1-3.32 1.5-.97.5-1.85 1-2.64 1.5-2.5 1.16-4.93 2.35-7.33 3.53-2.67 1.38-5.32 2.73-7.95 4.04-.51.25-1.53.74-2.04.99-2.28 1.15-4.52 2.28-6.72 3.41-2.07.95-4.06 1.95-5.98 3-1.22.52-2.27 1.05-3.29 1.57-1.4.68-2.74 1.36-3.99 2.03-2.96 1.46-5.86 2.93-8.73 4.41-2.49 1.14-4.89 2.36-7.25 3.59-.51.24-1.52.74-2.03.99-2.7 1.34-5.36 2.68-7.99 4.01-2.05 1.03-4.07 2.03-6.04 3.01-2.02 1.03-4 2.03-5.97 2.95-1.66.85-3.25 1.72-4.75 2.64-.54.06-1.63.17-2.18.23-.51.3-1.51.92-2.02 1.23-.52.22-1.57.67-2.09.9-4.71 2.27-9.12 5.04-13.66 7.54-1.52.49-2.96 1-4.33 1.51-1.68 1.04-3.35 2.06-4.95 3.05-.51.23-1.52.69-2.02.93-1.41.66-2.74 1.33-3.99 2-.99.47-1.9.96-2.73 1.44-2.76 1.24-5.43 2.58-8.04 3.98-1.41.65-2.73 1.31-3.99 1.98-2.73 1.29-5.39 2.64-7.97 4.06-1.22.5-2.31 1.01-3.33 1.52-2.65 1.4-5.31 2.74-7.95 4.03-1.4.67-2.73 1.34-3.98 2.01-2.05 1.01-4.05 2-6.02 2.97-.99.48-1.9.97-2.72 1.47-2.07.94-4.07 1.93-5.99 2.96-2.48 1.19-4.9 2.39-7.3 3.58-2.28 1.14-4.53 2.27-6.71 3.43-1.82.85-3.56 1.72-5.25 2.58-.51.25-1.53.74-2.04.99-.97.48-1.85.96-2.66 1.45-2.51 1.12-4.91 2.36-7.27 3.6a45.1 45.1 0 0 0-2.84 1.15c-5.92 1.3-12.06.28-18.03.64-3.1.42-6.07-1.28-9.03-.55-2.71.75-5.31-.67-7.93-.48-10 .12-19.99-.14-29.96.15-2.66 1.92-5.64-1.26-8.22.55-3.57-1.6-7.18.43-10.77.23-3.11-1.67-6.75-.76-10.03-.76-2.34 1.66-4.86-.86-7.14.58-4.56-1.93-9.33.44-13.92-.57-6.69-.84-13.34.84-19.96-.18-4.41-.63-8.84.98-13.04.21-2.79.76-5.61 1.06-8.28 1.94-7.97 4.12-16.06 7.96-23.99 12.1-2.71 1.34-5.39 2.68-8.02 4.02-5.97 3.04-12.02 5.91-17.93 9-1 .47-1.93.95-2.77 1.43-5.43 2.48-10.73 5.19-15.97 8-7.96 3-14.8 8.59-18.78 16.16-8.29 12.38-16.72 24.66-24.95 37.06-.67.71-1.26 1.43-1.77 2.15l-.08.83c-.67.71-1.26 1.44-1.76 2.17-1.48 2.29-2.98 4.54-4.43 6.81-8.67 12.3-16.24 25.39-25.7 37.12-3.18 4.31-4.97 9.49-8.45 13.56-7.28 10.45-14.21 21.12-21.4 31.62-.28 2.11-2 4.48-.47 6.46.05.94.19 1.88.41 2.84.31 1.01.72 2.03 1.23 3.06 1.09 1.03 2.21 2.35 1.16 3.91-1.53 3.77-5.29 5.72-8.66 7.49-4.47 2.25-8.96 4.4-13.32 6.76-1.21.5-2.33 1.03-3.37 1.55-2.91 1.48-5.81 2.94-8.66 4.44-1.83.85-3.61 1.73-5.32 2.6-1.38.67-2.7 1.33-3.95 2-.99.46-1.91.93-2.74 1.41-1.41.64-2.77 1.3-4.03 1.97-2.04.99-4.03 2-5.96 3.02-.5.28-1.49.82-1.98 1.09a91.26 91.26 0 0 0-4.21 1.52c-4.02 1.97-7.92 4.12-11.71 6.44-3.19 1.4-6.25 3.02-9.31 4.58-1.66.79-3.25 1.59-4.79 2.4-2.7 1.29-5.34 2.63-7.93 4.01a154.05 154.05 0 0 0-8.04 3.98c-2.06.97-4.05 1.98-5.97 3.03-1.2.51-2.33 1.03-3.34 1.56-1.39.68-2.73 1.36-3.98 2.05-2.02 1.01-4.02 2-5.97 2.97-2.29 1.13-4.54 2.25-6.73 3.4a67.43 67.43 0 0 0-3.99 1.99c-2.72 1.3-5.38 2.66-7.99 4.03-4.1 1.88-8.05 3.98-12.02 6.01-2.71 1.27-5.36 2.61-7.95 4-2.49 1.16-4.91 2.36-7.29 3.6-2.03 1.03-4.03 2.03-5.99 3-2.29 1.13-4.55 2.24-6.77 3.35-.53.3-1.58.92-2.11 1.23-.54.04-1.62.13-2.16.17-5.01 3.3-10.36 5.99-15.69 8.64-.49.29-1.46.85-1.95 1.13-2.32.92-5.32 2.14-7.26-.03-2.13.61-4.17 1.41-6.11 2.3-21.95-33.69-43.74-67.5-65.77-101.13 14.6-21.73 29.23-43.44 43.78-65.19 2.12 3.5 6.59 1.89 8.6-.86 2.12-3.16 4.07-6.87 2.94-10.79l-3.56-.08c2.65-3.96 5.09-8.1 8.08-11.85.57-.16 1.7-.47 2.27-.63-.21-.47-.63-1.41-.84-1.89 1.56-2.25 3.15-4.52 4.7-6.82-1.5-.41-2.9-.76-4.35-.45-.91-3.3-1.71-6.59-2.59-9.87 8.44-12.32 16.53-24.9 25.11-37.12 4.67-3.6 9.96-6.38 14.92-9.62 1.91-1.67 5.22-.08 6.74-2.31 21.29-31.45 42.25-63.16 63.67-94.52 7.28-4.51 15.31-7.8 22.9-11.85 68.9-34.58 137.8-69.15 206.69-103.74m-9.72 14.51c-.54 1.29.73 2.32 1.28 3.38 4.01-1.29 5.38-5.43 6.43-9.1-3.05 1.06-6.66 2.37-7.71 5.72m137.17.17c-1.75.89-3.65 2.96-2.11 4.91 2.55 1.14 4.47-2.37 4.77-4.56-.95-.8-1.83-.91-2.66-.35m-187.57 16.59c-1.34 1.54 1.42 3.02 2.43 1.49 1.05-1.5-1.6-2.9-2.43-1.49m65.02 21.02c-3.28 2.7-6.16 6.43-6.25 10.84 1.18 3.88 6.26 2.37 8.72.53 4.5-3.01 6.95-7.92 9-12.77-1.03-.65-2.65-1.13-3.51-1.58.64-.75 1.3-1.49 2.12-2.23l.14 1.36 2.4-.28c-.18-.94-.53-2.83-.71-3.78-4.51 1.75-8.14 5.03-11.91 7.91m18.27-1.07c-1.2 1.41 1.21 3.27 2.31 1.7.98-1.41-1.39-3.25-2.31-1.7m95.87 8.99c.84.87 1.77 1.73 2.78 2.59 3.69-2.23 6.07-6.04 7.59-10-4.09 1.47-8.28 3.38-10.37 7.41m77.83-.25c.98-1.17 1.99-2.35 2.86-3.69-2.38-2.46-6.57 2-2.86 3.69m-245.62 2.48c-1.53.74-3.2 4-.46 4.32 1.93-.32 5.03-4 2.03-5.12-.39.2-1.18.6-1.57.8m65.56 2.63c-2.34 1.3-5.03 2.42-5.92 5.15-1.02 1.29.36 3.49 2.09 2.69 3.96-.9 3.62-6.07 6.63-8.19.72-.37 1.82-2.57.27-2.43-1.98-.77-2.44 1.61-3.07 2.78m6.03 1.98c-1.82 2.02-3.73 4.71-2.53 7.52 3.37 1.71 6.87-1.57 8.94-4.1 2.35-2.28 1.85-5.8 3.39-8.53-3.35 1.58-7.25 2.3-9.8 5.11m157.29 2.11c-1.89-.09-2.21 3.54-.09 2.78 1.62.33 2.14-3.23.09-2.78m-312.89 6.75c1.27-.33 2.97-.32 3.68-1.81-.28-1.13-.59-2.23-.93-3.3-2.27.84-3.17 2.82-2.75 5.11m176.99-4.65c-1.97 1.22-3.99 2.62-4.78 4.85.02 1.55 1.67 2.88 3.15 1.71 2.73-1.29 3.69-4.45 4.64-7.1-.75.13-2.25.4-3.01.54m-107.16 9.87c1.47-.52 2.46-1.65 3-3.18-2.17-.01-3.31 1.06-3 3.18m-94.73.32c.07.57.2 1.71.27 2.28 1.12-.51 2.11-1.19 2.42-2.56l-2.69.28m123.75 7.82c1.04-.01 2.95.48 3-1.26.62-1.44-1.57-1.6-2.21-2.38-.22 1.22-.82 2.41-.79 3.64m-124.74 7.56c2.87-1.05 4.44-3.69 4.45-6.73-3.08.68-6.02 3.37-4.45 6.73m146.98.71c-1.73 1.03-2.39 4.6.55 4.19 2.73-1.59 3.87-4.74 4.84-7.6-1.93.98-3.83 2.02-5.39 3.41m104.43 9.75c2.68 1.63 4.21-2.27 5.17-4.18-2.34-.21-6.27 1.3-5.17 4.18m-58.62-2.92c-.53 1.65.05 2.18 1.73 1.59.35-1.66-.23-2.19-1.73-1.59m136.76 5.6c2.72.68 4.62-2.24 4.91-4.64-2.12.89-5.66 1.58-4.91 4.64m-243.49-1.75c-1.2 1.44 1.21 3.18 2.27 1.6 1.12-1.46-1.41-3.26-2.27-1.6m-87.32 3.12.28 2.71c.73-.84 1.53-1.69 2.35-2.56-.66-.04-1.98-.11-2.63-.15m215.16 5.93c-1.32 1.35.8 3.5 2.21 2.2 1.38-1.31-.99-3.79-2.21-2.2m-116.66 8.77c-.65 2.24 2.36 2.58 3.67 1.41 1.68-1.62 2.38-3.97 3.32-6.08-3.22-.48-5.66 2.1-6.99 4.67m-103.41 1.81c-.72 1.39-.2 3.62 1.74 3.52 3.87-1.04 5.43-5.43 4.64-9.08-2.65 1.12-5.66 2.54-6.38 5.56m190.28 1.52c4.45.03 6.47-4.14 6.87-8.01-3.44 1.36-8.45 3.33-6.87 8.01m-221.1 11.22c-2.01 3.03-3.25 7.19-7.14 8.2.27-1.28.65-2.54 1.14-3.78-1.6 1.93-3.51 3.54-5.45 5.02-.52-.42-1.55-1.28-2.07-1.7-1.84 1.78-3.88 3.29-5.65 5.05-1.78 2.34-3.21 4.91-4.56 7.48-2.33 4.04-1.35 10.07 3.15 12.17 5.93-.92 10.01-5.67 14.7-9.01-.12-.7-.35-2.12-.47-2.83.33-.51.97-1.53 1.29-2.03-.03-.66-.09-1.97-.13-2.63 1 .18 2.05.35 3.23.53l.2-3.11c1.84-1.84 4.3-3.37 5.22-5.98-1.99 1.87-3.72 4.08-6.33 5.04-.23-2.03-.84-4.15-.17-6.15 1.65-2.66 3.91-4.88 5.95-7.29.69-.96 1.69-2.44.28-3.31-2.22.12-2.24 2.9-3.19 4.33m79.32-1.41c2.04.17 2.78-1.65 3.39-3.3-2.16.01-3.33 1.23-3.39 3.3m64.72 3.7c.48.45 1.43 1.36 1.9 1.82 1.71-1.36 2.86-3.23 3.34-5.41-2.46-.06-4.34 1.44-5.24 3.59m-66.14.87c1.16 1.31 3.16-.85 2.02-2.05-1.3-1.29-3.49.81-2.02 2.05m-43.15 8.62c.48.48.48.48 0 0m17.95 9.51c2.62.52 3.98-2.52 3.46-4.74-1.77.98-4.8 2.23-3.46 4.74m-32.67 13.67c-2.44 1.67-2.7 4.78-3.74 7.26-.7 1.74-2.13 3.37-1.6 5.37 1.54 1.59 3.33-.21 4.63-1.3 2.57-2.41 5.65-4.62 6.94-8.08 1.13-3.17 1.95-6.43 3.02-9.63-3.42 1.64-6.23 4.2-9.25 6.38m128.48-2.41c-4.62.66-7.89 4.95-9.44 9.02-.71 2.71 2.75 3.12 4.51 2.06 4.68-2.27 5.22-8.03 7.87-12.02-.87-1.73-2.11.52-2.94.94m-185.87-.72c-1.14 1.26-1.86 2.74-1.85 4.43 1.74-.37 2.94-1.69 4.09-3.03-.83-.47-1.58-.94-2.24-1.4m9.44 9.77c-1.23 1.44 1.23 3.09 2.29 1.56 1.21-1.48-1.43-3.17-2.29-1.56m59.79 12.46c.52 2.12 2.98 1.01 4.2.05 2.25-1.86 2.59-5 3.42-7.64-3.41 1.09-8.11 3.36-7.62 7.59m110.38-2.75c2.3.62 3.43-.57 2.94-2.85-1.11.86-2.13 1.8-2.94 2.85m-158.77 9.58c-1.26 3.08 3.29-.26 0 0m-17.51 2.52c-.63 1.62-.1 2.17 1.6 1.67.49-1.64-.05-2.2-1.6-1.67m115.23 6c1.05-1.45 2-3.04 2.03-4.93-2.03 1.15-4.94 2.95-2.03 4.93m33.37 2.51c-4.82 1.98-9.51 6.11-9.85 11.61-.31 2.36 2.52 4.14 4.71 3.49 5.21-1.63 9.22-6.26 10.36-11.6.37-3.39 3.55-5.64 3.72-9.07-3.08 1.75-5.61 4.36-8.94 5.57m-133.47-.28c1.62.26 3.43.54 5.18.77-.91-1.57-1.13-3.74-2.74-4.69-1.67.65-2.22 2.35-2.44 3.92m-22.68 6.85c.99-1.17 2.24-2.36 2.09-4.1-2.64-.76-3.65 2.4-2.09 4.1m139.5-.74c-.6 1.61-.04 2.16 1.66 1.66.44-1.62-.12-2.18-1.66-1.66m-201.18 7.42c4.42 1.45 6.49-4.19 5.59-7.69-3.34.77-7.8 3.77-5.59 7.69m46.92 2.36c-.56 1.85.89 3.38 2.83 2.92.48-1.93-.99-3.35-2.83-2.92m68.69 5.8c1.26-1.51 3.39-3.03 2.7-5.35-2.87-.7-5.79 3.6-2.7 5.35m28.32-3.67c-1.4.84-1.36 3.37.77 2.46 2.29-.53 1.44-4.1-.77-2.46m-146.71 1.41c-1.3 1.02-2.31 2.67-1.14 4.2 2.54.98 4.83-2.54 3.91-4.84l-2.77.64M6661.9 558c-1.56 1.37-2.24 4.27.14 5.22 2.77.22 4.6-1.97 6.11-4.01 5.29 1.16 8.28-4.1 9.13-8.51-5.56 1.34-11.31 3.12-15.38 7.3m-56.9 9.91c-1.29 2.88 2.63 4.79 4.84 3.23 5.21-2.53 6.36-8.64 7.85-13.67-4.79 2.49-11.68 4.26-12.69 10.44M6435 562l-.64 2.05c1.75.1 2.47-.9 2.38-2.63-.43.15-1.31.43-1.74.58m86.46 8.05c-.72 1.41.89 3.29 2.46 2.48 3.32-.99 3.82-4.82 4.15-7.77-2.92.49-5.97 2.22-6.61 5.29m-71.46 7.27c1.9-1.32 4.02-2.74 4.86-5.06-2.92-2.89-5.1 2.66-4.86 5.06m27.6-4.49c-1.96.77-3.42 3.59-1.32 5.07 1.83-.24 3.76-1.68 3.69-3.75.06-1.36-1.46-1.91-2.37-1.32m145.57 4.15c.77-1.22 3.93-3.59.95-4.06-2.42.37-2.31 2.57-.95 4.06m-205.78-2.57c-1.23.59-2.23 2.98-.11 3.03 2.28.47 2.61-3.72.11-3.03m10.01 3.22c-1.52.99-2.73 3.44-1.02 4.83 2.14 1.2 4.23-1.48 4.25-3.5.6-2.03-2.2-2.95-3.23-1.33m203.04 1c-3.92 2.36-8.95 3.12-11.52 7.27-2 2.22-3.57 6.9.14 8.3 5.19.07 9.47-4.56 10.87-9.31.52-2.4 2.28-4.54 2.18-7.05-.42.2-1.26.59-1.67.79m28.74.68c-1.31 1.47 1.3 3.13 2.32 1.55 1.04-1.48-1.47-3.11-2.32-1.55m-238.28.84c-1.53 1.48.92 4.42-1.4 5.17-3.72 1.83-8.25 5.98-6.32 10.5 1.57 3.53 5.92 1.21 7.85-.81 3.83-4.28 2.01-10.53 2.29-15.73-.61.22-1.82.65-2.42.87m61.26 2.2c-1.41 1.51 1.31 3.07 2.31 1.47 1.13-1.5-1.47-3-2.31-1.47m-3.92 16.59c-.87 2.57 2.2 5.03 4.66 3.96 3.6-.85 6.01-4.09 7.23-7.43.36-2.68.02-5.4.16-8.08-5.24 2.15-10.85 5.59-12.05 11.55m-48.83-5.52c-.47 1.48-.6 2.97 1.55 2.33 1.49-1.09-.12-2.75-1.55-2.33m160.22 8.59c-.58 2.87 2.9 4.47 5 2.56 5-2.34 5.5-8.21 7.84-12.58-5.26 1.41-11.79 3.96-12.84 10.02m-95.44-.07c-.04 2.66 3.2 2.28 4.69 1 2.6-1.68 2.41-5.14 2.77-7.86-3.33.8-7.98 2.7-7.46 6.86m145.03-5.84c-1.98.42-1.08 3.43.82 2.86 2-.36 1.01-3.56-.82-2.86m-217.17 5.95c-.68 1.59-.16 2.16 1.58 1.7.52-1.61-.01-2.17-1.58-1.7m-20.92 4.73c2.36.12 3.54-1.56 3.86-3.75-2.37-.11-3.48 1.75-3.86 3.75m8.86-3.74c-.58 1.63-.02 2.17 1.68 1.61.41-1.65-.15-2.18-1.68-1.61m41.46 2.09c-.49.8-.89 1.61-1.18 2.45 1.02-.12 2.64.52 3.19-.93-.44-.85-1.19-1.43-2.01-1.52m27.23 7.01c3.97 2.25 5.9-3.74 5.79-6.77-2.86.79-7.61 3.1-5.79 6.77m-69.31-5.04c.14.49.41 1.45.54 1.94.45.1 1.33.3 1.77.4.24-1.82-.57-2.63-2.31-2.34m90.6.28c-.62 1.63-.08 2.18 1.63 1.66.44-1.63-.1-2.19-1.63-1.66m46.59 7.13c-1.77 2.2-2.2 5.9-.33 8.14 4.17 2.78 8.03-1.67 10.72-4.47 1.03.61 2.12 2.4 3.53 1.16 1.61-1.02 1.42-2.88 0-3.96l-2.37 1.49c.69-3.58 1.43-7.15 2.35-10.69-5.02 2.01-10.27 4.19-13.9 8.33m84.37-.53c-1.19 2.05 1.56 4.71 3.69 3.54 4.91-1.69 6.21-7.26 8.4-11.38-4.36 1.91-10.25 2.8-12.09 7.84m-34.48-5.36c-4 1.97-10.09 4.47-9.25 9.92.23 3.12 4.17 2.7 6.31 1.73 3.26-1.85 4.45-5.71 5.67-9.03.15-1.13 1.38-2.87-.06-3.63-.67.25-2 .76-2.67 1.01m-138.81 14.03c-2.48 3.2-4.49 8.76-.56 11.67 4.86 1.81 10.19-1.21 13-5.19 3.02-4.81 1.74-10.62 2.39-15.95-5.61 1.87-11.58 4.21-14.83 9.47m28.57-5.64c-2.72 1.12-5.62 2.4-7.14 5.01-1.88 2.37-2.3 6.37.99 7.72 6.1-.27 9.45-7.29 8.82-12.82-.67.02-2 .06-2.67.09m66.3 16.32c-4 2.16-8.46 4.09-10.93 8.09-1.11 2.1-3.07 4.97-1.03 7.12 2.32 3.55 7.34 1.16 9.95-.98 4.5-3.37 4.68-9.34 6.68-14.17 3.98-2.91 5.4-7.79 6.61-12.33-5.83.75-14.17 5.19-11.28 12.27m-15.82-5.65c-1.39 1.28-2.18 3.79-.51 5.2.86 1.39 2.68.69 3.83-.13 2.88-1.91 3.99-5.66 3.59-8.98-2.46 1.09-5.1 1.89-6.91 3.91m-41.46 2.41c.86.95 1.87 2.4 3.5 1.66 2.19-.95 2.42-3.66 3.24-5.65-3.04-.24-5.37 1.46-6.74 3.99m-118.26 7.92c-.52 1.99.38 4.94 3.03 4.47 5.73-.98 6.63-7.53 7.71-12.16-4.86-.56-9.99 2.77-10.74 7.69m31.25-6.76c-2.65.9-3.75 5.78-.28 6.27 1.99-.79 3.85-2.72 3.63-5.05-.09-1.93-2.16-2.35-3.35-1.22m114.58 3.44c-3.68 2.37-4.57 7.6-2.79 11.4 2.87 1.92 6.61-.03 8.72-2.31 3.18-3.51 6.5-7.8 5.73-12.85-3.97 1.13-8.71.38-11.66 3.76m-28.61 5.5c-1.06 2.12-.31 6.13 2.86 5.3 4.02-1.61 5.63-6.08 6.21-10.05-3.55-.03-7.55 1.34-9.07 4.75m-105.77 3.17c-.96 1.67.34 3.25 1.39 4.48 2.83-1.26 5.46-5.03 2.4-7.51-1.35.95-2.78 1.82-3.79 3.03m89.22 2.67c-.77 1.59 1.38 3.41 2.91 2.53 2.69-1.33 3.68-4.68 3.23-7.5-2.45 1.05-5.55 2.03-6.14 4.97m-65.26 3.02c-1.28 2.17 1.64 4.39 3.6 2.95 3.21-2.07 3.99-6.28 4.67-9.78-3.16 1.65-7.21 3.06-8.27 6.83m-44.19.13c-1.57.98.08 3.47 1.62 2.36 1.43-.97-.24-3.55-1.62-2.36m16.75-.25c-1.83 1.79.76 4.9 2.42 2.65 2.43-1.54-.61-4.72-2.42-2.65m-6.46 3.74c-1.28.96-2.52 2.81-1.66 4.37 2.47 2.16 5.26-1.26 5.07-3.81-.25-2.3-2.25-1.31-3.41-.56m197.87.49c-1.28 1.42 1.16 3.19 2.26 1.66 1.13-1.43-1.34-3.2-2.26-1.66m-144.22 9.71c2.83-.7 5.15-3.94 3.04-6.58-2.59.66-7.31 4.8-3.04 6.58m130.02-2.78c.82.88 1.72 1.75 2.7 2.63 1.32-1.56 3.41-3.12 2.94-5.49-2.48-.82-4.15 1.4-5.64 2.86m-14.66.4c-2.22.55-5.41 3.15-3.55 5.52 3.11 2.84 8.18-5.88 3.55-5.52m-191.59 7.6c-1.6 2.19.28 4.32 2.01 5.63 2.08-.99 3.62-2.75 4.93-4.66.03-1.95.16-3.89.56-5.8-2.75 1.17-6.58 1.48-7.5 4.83m159.09 7.02c5.17 1.28 7.67-4.87 8.43-8.98-4.73-1.05-11.62 4.17-8.43 8.98m-71.39 1.24c-6.41.8-12.42 6.15-13.38 12.61-.88 3.39 3 5.4 5.9 4.83 6.25-.97 10.69-7.89 8.84-13.99 3.21.51 6.13-.89 8.5-3.04.03-3 .12-5.99.17-8.98-4.5 1.1-8.57 4.08-10.03 8.57m-55.96-2.84c-2.56 2.23-2.65 5.79-4.06 8.64 1.77.27 3.65.63 5.51 1.09 1.12-.43 2.26-.87 3.54-1.3 1.28-3.05 3.52-6.5 2.49-9.86-2.09-2.94-5.72-.5-7.48 1.43m173.72-1.28c-1.84.46-2.51 3.12-.43 3.76 2.17-.19 3.19-3.95.43-3.76m30.75 4.71c1.65.2 2.06-1.53 2.78-2.71-1.59-.38-4.6 1.09-2.78 2.71m-113.64-1.93c-.65 1.6-.12 2.18 1.6 1.74.49-1.63-.04-2.2-1.6-1.74m-17.38 8.34c3.4.71 4.93-3.6 4.91-6.39-3.18-.3-8.44 3.35-4.91 6.39m95.02-5.31c-.55 1.63.02 2.19 1.7 1.69.39-1.65-.18-2.21-1.7-1.69m-177.3 3.1c.35 2.5 2.1.6 3.31-.13-.95-.69-3.74-2.44-3.31.13m109.62 2.5c-4.02 1.13-8.72 6.47-5.29 10.31 5.7 2.14 9.93-4.73 9.62-9.79.27-2.78-3.06-.88-4.33-.52m-71.85 1.59c-4.4 1.23-7.86 4.46-10.79 7.77-1.72 2.6-1.99 5.82-2.72 8.76-2.05 1.41-4.13 2.78-5.8 4.57-2.56 2.8-3.8 7.29-1.22 10.49 2.81 1.59 7.08 1.23 9.29-1.39 1.31-1.61 2.48-3.39 3.78-5.08 4.75-.67 9.63-2.52 12.77-6.36 4.43-4.4 3.15-11.33 5.98-16.55-.73-.06-2.19-.17-2.91-.23-.42.43-1.24 1.28-1.65 1.71-1.64-2.13-3.86-4.28-6.73-3.69m-38.04 11.75c.71 2.24 1.52 5.13 4.42 5.35 5.86-.77 10.56-6.28 10.5-12.23-.29-2.34-2.74-2.83-4.39-3.72-5.05 1.61-9.37 5.27-10.53 10.6m-18.95 1.77c-1.96.66-2.21 4.32.32 3.97 2.32-.34 2.44-5.24-.32-3.97m105.66 5.6c-2.32.47-4.15 4.63-1.17 5.34 3.56.93 6.04-7.12 1.17-5.34m-100.93 3.83c-1.19 2.15 1.19 5.3 3.6 4 3.35-1.12 3.09-5.01 3.41-7.84-2.78.04-6.09.93-7.01 3.84m182.33-1.73c-1.87.97.51 2.54 1.26 3.31.67-.9 1.37-1.82 2.11-2.77-.12-2.08-2.5-1.75-3.37-.54m-112.34.77c.37.6.37.6 0 0m41.73 4.97c-2.15.29-1.23 3.56.76 2.96 1.73-.46.98-3.43-.76-2.96m-83.37 8.56c-2.5.56-5.79 3.45-3.56 6.03 1.92 1.7 4.34-.56 5.31-2.3.79-1.45.51-4.68-1.75-3.73m-11.47 14.76c-1.02-.4-1.89-.78-2.7-1.19l-1.17 1.41c1.28.04 2.66.11 4.11.24.36.41 1.08 1.21 1.43 1.61 3.31-.19 5.57-3.86 4.36-7-2.92-.18-6.73 1.34-6.03 4.93m103.07.8c-1.68.95.09 3.38 1.62 2.29 1.53-.98-.25-3.44-1.62-2.29m-18.14 10.78c-.57 1.64-.02 2.18 1.66 1.64.42-1.65-.14-2.2-1.66-1.64m-46.08 3.7c-2.5 1.81-6.9 3.47-6.27 7.18 2.83 4 6.66-.9 7.91-3.75-3.25-2.26.19-4.18 1.56-6.23-1.94-.12-2.57 1.41-3.2 2.8zm548.07-250.88c93.53-47.02 187.11-93.96 280.68-140.9 2.77 3.6 5.21 7.5 8.42 10.79 4.71 6.07 8.35 12.89 12.75 19.21 6.06 9.01 11.67 18.33 17.83 27.29 3.06 4.9 6.19 9.76 9.39 14.59 1.91 2.67 1.24 6.13 1.33 9.22-4.6 6.82-9.09 13.71-13.72 20.5-8.35 12.36-16.76 24.68-25.01 37.09-1.36 2-2.69 3.99-4 5.97-5.01 7.74-10.41 15.22-15.2 23.08-.06.59-.19 1.77-.25 2.36-.22 2.15.16 4.29.1 6.46.47-.54 1.05-1.06 1.72-1.57.31.76.92 2.27 1.23 3.02.08.51.24 1.53.33 2.04.92 1.47.63 3.21.33 4.84-3.76 7.89-9.47 14.64-14.05 22.05-3.21 4.5-5.82 9.45-9.51 13.56-4.03 3.52-8.64 6.33-13.34 8.82-.51.21-1.55.64-2.07.85l-2.04 1.28-2.28.08c-6.79 3.55-10.39 10.56-14.54 16.61-2.83 4.19-5.63 8.39-8.43 12.58-1.35 2.01-2.68 4-3.99 5.97-1.36 1.99-2.68 3.97-3.98 5.94-1.35 2.03-2.68 4.05-4.01 6.04-.78 1.01-1.46 2.03-2.05 3.05-.73.97-1.4 1.93-1.95 2.91-1.36 2.01-2.7 4.01-4.02 6-1.36 2-2.69 3.99-3.98 5.98-6.52 9.25-12.67 18.75-19.01 28.11-2.43 3.67-6.02 6.35-9.93 8.2-2.29 1.1-4.52 2.23-6.71 3.35-2.06.96-4.05 1.96-5.97 3a68.88 68.88 0 0 0-4.03 1.99c-1.42.65-2.75 1.32-4.01 2-6.49 3.08-12.62 6.84-19.08 9.92-1.42.64-2.76 1.3-4.01 1.97-2.06 1-4.06 2.01-6.01 3.04-2.49 1.16-4.92 2.38-7.31 3.61-1.42.65-2.77 1.29-4.04 1.94-.97.48-1.85.97-2.65 1.46-2.75 1.22-5.42 2.57-8.01 3.98-1.82.85-3.59 1.72-5.29 2.59-.5.25-1.49.75-1.99 1-1.63.81-3.2 1.61-4.7 2.43-1.82.84-3.58 1.71-5.27 2.58-2.04 1.03-4.05 2.03-6.01 3.02-2.05 1.02-4.07 2.02-6.04 3-4.25 2.14-8.46 4.29-12.66 6.43-2.73 1.25-5.38 2.6-7.96 3.99-2.75 1.25-5.42 2.58-8.03 3.98-2.72 1.29-5.38 2.64-7.98 4.04-3.85 1.76-7.57 3.75-11.34 5.57-1.38.66-2.69 1.33-3.91 2.01-1.42.66-2.77 1.33-4.04 1.99-1.66.8-3.26 1.6-4.79 2.4-3.37 1.61-6.67 3.31-9.93 5.04-1.18.49-2.27 1-3.26 1.52-.98.49-1.88.98-2.7 1.48-3.42 1.56-6.72 3.28-9.99 5.01-.52.24-1.57.72-2.09.97-3.1 1.53-6.16 3.11-9.22 4.6-1.63.81-3.2 1.61-4.7 2.43-.51.25-1.53.74-2.04.98-2.05.97-4.04 1.97-5.97 3a71.35 71.35 0 0 0-4.01 2c-2.72 1.3-5.39 2.65-8 4.01-3.82 1.79-7.5 3.8-11.26 5.58-2.29 1.14-4.54 2.27-6.74 3.42-1.4.64-2.72 1.3-3.96 1.98-.5.25-1.5.77-2.01 1.03l-2 1c-1.41.65-2.74 1.32-4 2-.5.25-1.5.76-2 1.01l-2 1c-1.41.65-2.74 1.32-3.99 2-4.04 1.98-8.03 4-12.01 6-.5.25-1.49.74-1.99.99-2.06.98-4.05 1.98-5.98 3.02a75.08 75.08 0 0 0-4.01 1.98c-1.4.67-2.73 1.35-3.97 2.04-1.2.5-2.32 1.02-3.32 1.54-2.03 1.05-4.04 2.05-6.01 3.02-.99.47-1.9.95-2.73 1.44-3.11 1.5-6.15 3.09-9.22 4.56-1.01.47-1.94.95-2.78 1.44-2.06.96-4.06 1.95-6 2.95-2.82 1.54-5.6 3.11-8.4 4.57a218.88 218.88 0 0 0-6.68 3.38c-3.15 1.49-6.23 3.07-9.29 4.6-3.6 1.78-7.16 3.56-10.68 5.38-2.76 1.24-5.43 2.6-8.05 3.99-1.38.69-2.69 1.4-3.91 2.13-1.53.48-2.97.99-4.34 1.48-.98.54-1.87 1.09-2.69 1.65-2.16.04-4.3-.1-6.16.92-43.33.28-86.66.04-129.99.12-4.66-.31-9.47.71-13.94-.63-3.58 1.25-7.42.41-11.05.62-10.99.01-21.96 0-32.92 0-3.27-.19-6.21 1.32-9.15 2.35-2.93 1.52-5.88 2.97-8.77 4.46-2.45 1.16-4.85 2.36-7.22 3.54-1 .48-1.92.97-2.75 1.47-2.08.94-4.08 1.94-6.02 2.97-1.43.64-2.78 1.3-4.06 1.96-.48.26-1.46.77-1.95 1.03-.51.25-1.51.76-2.02 1.01-2.05.98-4.04 1.98-5.98 3-2.06.95-4.04 1.95-5.96 3-.5.25-1.52.76-2.03 1.02-2.7 1.32-5.35 2.67-7.98 4.01-3.12 1.54-6.17 3.16-9.29 4.56-.96.49-1.85.99-2.65 1.5-1.2.49-2.35.99-3.37 1.51-1.61.81-3.17 1.62-4.67 2.44-.51.25-1.54.74-2.05.98-3.09 1.56-6.14 3.13-9.23 4.57-1 .46-1.93.93-2.78 1.41-4.67 1.91-9.07 4.77-11.82 9.06-8.36 11.99-16.35 24.23-24.46 36.37-.8.99-1.54 1.99-2.2 2.99l-.14.74c-.65.71-1.22 1.44-1.7 2.18-5.75 8.32-11.37 16.72-17.02 25.11-4.59 7.04-9.29 14.01-13.98 20.97-1.98 3.01-3.98 6-5.98 8.96-1.99 3.03-4 6.02-6.02 9-.73 1-1.39 2.01-1.97 3.03-8.94 12.89-17.71 25.9-26.17 39.09-1.3 3.07-1.63 6.46.03 9.48 3.54 5.8 7.37 11.43 11.15 17.1 1.52 2.51 3.06 5.03 4.79 7.46.04 2.13.17 4.3-.22 6.41-4.26 4.26-10.16 6.14-15.29 9.02-3.39 1.59-6.7 3.29-9.97 5.01-2.74 1.27-5.42 2.61-8.05 3.98-2.05.97-4.04 1.97-5.98 3-3.39 1.61-6.7 3.31-9.98 5.04-2.06.95-4.06 1.95-6 2.98l-2.04 1c-1.4.65-2.71 1.33-3.96 2.02-1.81.86-3.56 1.74-5.26 2.62-1.41.65-2.77 1.3-4.04 1.97a522.86 522.86 0 0 0-6.72 3.41c-3.12 1.49-6.17 3.09-9.24 4.59-2.94 1.49-5.86 2.96-8.76 4.41-1.41.65-2.74 1.32-3.99 2.01-1.17.5-2.27 1.01-3.25 1.55-.99.47-1.89.96-2.73 1.47-2.06.94-4.05 1.95-5.97 3.01-1.18.51-2.31 1.02-3.31 1.56-2.26 1.18-4.49 2.31-6.7 3.44-1.41.64-2.74 1.3-4 1.98a693.28 693.28 0 0 1-7.25 3.6c-2.04 1.03-4.04 2.03-6.03 2.98-.97.47-1.86.96-2.68 1.46-1.44.63-2.79 1.28-4.08 1.96-1.4.65-2.73 1.32-3.98 2.01-2.7 1.32-5.37 2.66-8 4-1.39.66-2.71 1.34-3.95 2.05-1.17.48-2.3.99-3.3 1.51-.98.48-1.88.97-2.71 1.48-1.41.62-2.74 1.26-4 1.92-2.81 1.54-5.55 3.15-8.34 4.62-1.43.63-2.79 1.27-4.07 1.93-.97.46-1.88.93-2.7 1.42-2.72 1.27-5.37 2.62-7.96 4.02-3.41 1.58-6.74 3.23-10.02 4.97-2.07.96-4.09 1.96-6.05 2.98-1.4.65-2.73 1.32-3.98 2.01-2.73 1.27-5.4 2.6-8.01 3.97-2.72 1.3-5.38 2.66-7.98 4.07-4.05 1.91-8.03 3.93-11.96 6-1.82.85-3.59 1.72-5.29 2.59-1.63.79-3.23 1.56-4.76 2.34-1.4.75-2.73 1.53-3.97 2.34-3.83.19-7.82-.66-11.37.97-18.66-28.68-37.34-57.35-55.81-86.14 20.7-30.36 41.03-60.98 61.55-91.46-1.44-.08-2.8-.14-4.07-.2-.88-3.53-1.79-7.04-2.58-10.57 6.46-9.27 12.63-18.75 18.98-28.1 3.03-4.26 5.26-9.53 10.34-11.81 5.49-2.64 10.02-8.27 16.59-7.81 2.17-3.11 4.29-6.27 6.31-9.5.81 1.62 1.54 4.44 4.01 3.94 3.85-.05 6.18-6.08 2.82-8.23-1.33-.12-2.58-.18-3.76-.17 18.63-27.53 37.08-55.17 55.63-82.76 1.76-2.49 3.1-5.65 6.18-6.86 9.98-4.89 19.84-10.06 29.91-14.82-.46 1.02-.87 2.05-1.21 3.08 2.14 3.41 6.39 3.54 10.04 3.73.33-.91.87-1.8 1.4-2.68-.77-2.74-.25-6.7-3.88-7.13 17.03-9.16 34.55-17.41 51.79-26.18 25.29-12.76 50.72-25.25 75.99-38.03 1.28 1.34 2.66 4.01 4.94 2.54 2.7-.93 2.86-4.03 2.95-6.43 27.99-14.1 56.06-28.05 84.08-42.11 2.58-1.34 5.17-2.89 8.2-3.18 2.93-.29 4.38-3.42 7.08-4.46 46.35-23.44 92.89-46.52 139.34-69.8 3.11-1.37 5.97-3.63 9.45-4.13 55-.21 110.03.18 165.02-.18 8.27-3.35 16.04-7.93 24.14-11.75 19.37-9.67 38.62-19.59 58.08-29.12 4.19-1.66 5.7-6.28 8.29-9.62 5.83-8.26 10.99-17.02 17.13-25.06 5.35-3.21 10.9-6.71 13.93-12.45 1.95-4.36 6.51-6.22 10.08-9.01-1.06-.39-2.03-2.1-2.99-1.22-3.05 1.95-5.75 4.5-9.24 5.58 1.71-4.3 4.83-7.83 7.3-11.71 18.71-27.96 37.59-55.81 56.21-83.82-3.36-6.63-8.13-12.5-11.82-18.94m209.23-101.98c.58.5 1.25 1 2.02 1.5 1.82-1.23 4.52-2.48 4.41-5.13-2.82-.86-5.27 1.33-6.43 3.63m-33.33 87.36c-.53 1.64.05 2.17 1.74 1.58.34-1.65-.24-2.18-1.74-1.58m-134.84 3.91c-.53.43-1.59 1.29-2.12 1.73.42 2.49 3.89 2.26 4.67.09-.34-1.11-1.38-2.37-2.55-1.82m51.11 29.95c-1.52.96-.01 3.53 1.56 2.45 1.37-.96-.15-3.64-1.56-2.45m-1.76 7.29c-1.42 1.63.43 3.2 2.1 2.06-.18-1.27-.89-2.08-2.1-2.06m-43.31 43.81c-1.72.29-1.08 2.97.6 2.5 1.54-.3.9-2.96-.6-2.5m95.24 19.94 2.19.28c-.01-.57-.02-1.71-.03-2.28-1.78-.42-2.5.34-2.16 2m-43.18-1.02c-.6 1.62-.04 2.18 1.67 1.66.41-1.64-.14-2.2-1.67-1.66m-92.81 3.19c-3.13 4.38-8.76 4.61-13.12 7.04-2.67 1.43-5.02 3.74-5.87 6.67-.34 2.9 2.81 4.81 5.47 4.19 5.97-.47 9.92-5.89 11.85-11.1.55-3.31 5.89-3.56 5.09-7.25-1.38-.65-2.52-.5-3.42.45m-60.87 40.99c-5.56.85-12.8 3.36-13.91 9.64.74 3.23 4.8 3.2 7.21 1.79 4.75-2.11 6.27-7.62 10.36-10.57 1.21-.95 1.73-2.26 1.55-3.93-2.16.43-3.68 1.76-5.21 3.07m20.47.69c-.67 2.2.76 3.02 2.78 2.72-.11-1.75-.84-3.09-2.78-2.72m8.39 19.57c-4.86.79-10.42 2.37-12.65 7.2-1.38 2.53 1.58 5.44 4.2 4.48 5.98-1.1 9.06-6.96 12.59-11.3.64-3.09-2.84-.27-4.14-.38m157.78 15.62c-.63 1.61-.09 2.17 1.63 1.68.45-1.63-.09-2.19-1.63-1.68m-85.93 10c-2.92.53-.98 4.63 1.32 3.35 1.96-1.1.99-4.22-1.32-3.35m-158.99 19.84c-.51 1.63.07 2.15 1.75 1.56.34-1.67-.24-2.18-1.75-1.56m-284.15 44.19c-2.45.86-4.86 3.82-2.46 6.11 2.32.66 4.74-1.04 5.46-3.3 1.12-1.72-1.41-3.95-3-2.81m282.44 2.46c-1.85.08-3.05 3.34-.46 3.12 2.24.68 2.44-3.99.46-3.12m-287.72 17.34c.9-1.21 2.76-2.09 2.87-3.8-2.32-1.97-5.93 1.96-2.87 3.8m10.69 26.97c.13 2.44 3.48 1.12 4.2-.36-.43-1.02-1.15-1.87-1.63-2.75-.82 1.04-3.39 1.48-2.57 3.11m-99.94 1.78c-.87 1.1-.25 3.41 1.47 2.99 2.71-.06 3.61-3.15 4.4-5.26-2.14.14-5.05-.18-5.87 2.27m294.38-1.8c-1.36.73-1.33 1.41.09 2.02 1.19-.75 1.16-1.42-.09-2.02m-116.76 4.35c-1.85.34.29 2.05.51 2.95.51-.43 1.53-1.3 2.04-1.74-.88-.4-1.65-2.14-2.55-1.21m-178.81 5.63c.22 2.49 2.86 1.65 3.74.01-1.23-1.56-3.13-2.49-3.74-.01m75.66 4.53c-1.58 2.95 3.3.07 0 0m-78.63 15.04c-.38.37-1.16 1.11-1.54 1.49-.17 2.48 3.46 2.23 3.66 0 .54-1.1-1.41-2.17-2.12-1.49m67.87 3.97c-2.56.87.19 4.88 1.72 2.52 2.18-1-.08-3.88-1.72-2.52m-149.85 17.28c-1.84.69-2.12 3.09-.05 3.82 2.74.06 3.31-5.75.05-3.82m19.82 3.69c1.87 1.44 4.8.9 5.62-1.51.67-1.1-.41-4.04-1.94-2.91-2.33.3-3.26 2.44-3.68 4.42m164.09 1.94c-1.17 1.29 1.11 2.88 2.14 1.55.95-1.32-1.29-2.84-2.14-1.55m-233.85 10.06c-.67-.32-2.03-.96-2.71-1.28-1.18 1.14-2.8 2.02-3.17 3.69-.68 1.87 1.64 3.32 3.31 2.76 1.6-1.12 2.17-3.17 3.12-4.83 2.25.31 4.27-1.35 3.89-3.77-2.5-1.04-4.1 1.31-4.44 3.43m37.05 3.97c2.64-.1 2.3-3.56 3.13-5.42-1.18 1.7-5.47 3.4-3.13 5.42m19.55-1.15c-2.96.83-4.47 5.23-1.07 6.59 2.47-.26 5.05-2.25 4.92-4.99.48-2.04-2.7-2.12-3.85-1.6m82.02 10.72c-.49 2.51 2.53 4.6 4.84 3.45 3.08-1.38 5.11-4.35 6.26-7.46-3.6-3.73-10.44-.82-11.1 4.01m65.83-.97c1.11-.18 2.03-1.02 2.94-1.82-.54-.35-1.64-1.06-2.19-1.42-1.93.2-1.57 2.1-.75 3.24m-246.64 12.98c1.37 1.01 2.59 3.22 4.71 2.65 3.41-.35 4.58-4.08 5.53-6.87-1.31-.81-2.49-1.61-3.66-2.4-3.37.85-5.6 3.41-6.58 6.62m39.1-4.75c-1.32 1.5 1.31 2.98 2.33 1.46 1.21-1.53-1.51-3.04-2.33-1.46m17.9.85c-1.48 1.45.63 4.53 2.09 2.31 1.4-1.3-.81-2.67-2.09-2.31m121.16 1.56c-1.24.49-2.83 2.05-1.64 3.29.85 1.98 3.56.57 4.25-.96 1.13-1.59-1.17-3.33-2.61-2.33m-166.18 12.26c-1.59 1.98-3.17 3.94-4.74 5.89.39 3.59 2.64 6.3 5.36 8.54 3.56-.24 6.94-1.5 10.07-3.27.11-.65.32-1.95.42-2.6.62-.33 1.84-1 2.45-1.33-.57-3.34-3.73-6.59-1.57-9.91-3.33 1.03-6.79 1.06-10.17.94.55-1.35.82-2.74 1.58-4.06-3.66-.81-3.29 3.41-3.4 5.8m14.67-2.76c-.62 1.62-.07 2.15 1.66 1.59.46-1.63-.09-2.15-1.66-1.59m-21.77 3.93c-1.94.47-.8 3.33.98 2.93 2.07-.39.78-3.57-.98-2.93m116.06 12.11c.68 1.4.34 4.3 2.72 3.68 1.36.11 1.97-1.33 2.75-2.26-1.26-.32-2.44-.61-3.55-.89-.48-.13-1.44-.4-1.92-.53m-125.39 2.67c-1.38 1.11.66 3.14 2 2.61 2.19-.25 1.75-2.9 1.93-4.48-1.42.48-3.11.54-3.93 1.87m-17.68 2.18c-1.94.44-.98 3.5.89 2.95 1.93-.46.89-3.54-.89-2.95m39.17 3.24c-.2.39-.61 1.16-.81 1.55.48 3.43 4.94.36 3.07-1.75l-2.26.2m23.75.93c-1.7.34-.91 2.93.71 2.44 1.63-.34.8-3-.71-2.44m-60.87 8.81c.51.51 1.51 1.55 2.02 2.06-.59 2.61 1.96 4.82 1.17 7.32l-.14.55c1.82.97 2.62-2.22 4.8-1.45 1.98-1.77 3.79-3.9 4.71-6.46-.04-3.16-3.2-4.42-5.79-4.79-.53.48-1.57 1.43-2.1 1.91-.6-.46-1.81-1.38-2.42-1.84-.92.81-1.67 1.71-2.25 2.7m6.95 11.2c-.54 1.63.02 2.17 1.71 1.62.38-1.65-.18-2.19-1.71-1.62m-22.07 18.6c1.68-.05 1.79-2.29 2.58-3.47l-2.68-.08c-2.48-.3-2.42 4.38.1 3.55m143.29-3.12c-1.34 0-2.21 2.93-.32 2.89 2.36.92 3.03-3.81.32-2.89m-132.03 1.66c-2.53-.02-1.41 2.82.46 2.47 2.24.8 1.39-3.8-.46-2.47m-64.47 3.6c-1.41 1.12.46 3.12 1.95 2.57 1.31-.4 1.11-2.09 1.65-3.15-1.36-.1-2.88-.82-3.6.58m-18.62 2.56c1.81.39 2.97-.6 3.47-2.36-1.84-.17-2.96.74-3.47 2.36m160.09-1.18c-2.6.33-4.47 3.95-1.38 5.22 3.82 1.63 5.91-5.93 1.38-5.22m-74.53 14.76c-.58 1.63-.01 2.17 1.69 1.62.4-1.63-.16-2.17-1.69-1.62m-37.58 1.14c-.01.43-.02 1.3-.02 1.73 3.01 2.59 2.91-4.57.02-1.73m-47.25 1.9c-2.19.88-1.27 3.65-1.5 5.43 1.47-.63 3.53-.75 4.83-2.02 1.27-1.22.11-3.02.01-4.44-1.2.29-2.35.53-3.34 1.03m65.01 3.21c.74.99 1.6 1.91 2.67 2.72-.01-.68-.04-2.05-.05-2.73-.66 0-1.97.01-2.62.01m-73.73.92c-1 1.59.52 3.1 2.21 2.32.49-1.55-.67-2.89-2.21-2.32m40.84 4.58c.83 2.06 3.88 2.69 4.41.06-.24-2.93-3.29-1.48-4.41-.06m-10.75-.19c-3.06 1.37-.7 7.31 2.57 5.42 3.74-1.63 1.2-7.47-2.57-5.42m20.07.81c-1.78 1.68-1.97 5.37 1.03 5.83 2.46-.04 5.88-2.65 4.2-5.33-.86-2.01-4.02-1.96-5.23-.5m-42.01 4.9c-2.49.05-1.68 3.84.53 3.1 1.98-.44 1.21-3.71-.53-3.1m12 2.75c-1.07 1.32 1.19 2.81 2.15 1.44.97-1.36-1.37-2.9-2.15-1.44m130.56 9.98c-1.92.41-1.1 3.55.79 3.05 1.75-.51 1.03-3.62-.79-3.05m-124.75 1.12c-.58 1.61-.02 2.15 1.68 1.62.43-1.63-.13-2.17-1.68-1.62m77.94 3.05c-1.61 1.74 1.04 2.51 2.45 2.32.71-1.48-1.2-4.19-2.45-2.32m-32.8 7.31c-1.19.48-2.38 2.11-1.61 3.39.55 2.2 4.22 2 4.95-.03 1.4-2.13-1.33-4.43-3.34-3.36m16.79 1.41c-1.74.45-.69 2.97.91 2.36 1.64-.47.54-3.06-.91-2.36m-43.84 1.3c-2.15 1.1-4.52 4.4-2.23 6.48 2.49 2.91 8.64-.91 6.23-4.28-.84-1.37-2.33-2.98-4-2.2m66.94 2.08c.1.44.29 1.34.38 1.79.44.09 1.3.28 1.73.38.05-.58.14-1.73.18-2.31-.57.03-1.72.1-2.29.14m-26.81 2.34c-.62.55-1.14 1.15-1.54 1.78.49.12 1.47.37 1.96.49 1.72.01 1.09-3.58-.42-2.27m20.62-.87c-.59 1.62-.05 2.18 1.63 1.68.44-1.66-.1-2.22-1.63-1.68m-50.12 3.16c-.55 1.62.02 2.15 1.71 1.57.4-1.65-.17-2.18-1.71-1.57m72.11 3.05c-1.25 1.43 1.29 3.13 2.37 1.66 1.03-1.46-1.45-3.12-2.37-1.66m19.22 1.29c-3.34.3-4.76 5.26-1.46 6.72 3.12 2.04 6.52-1.83 6.02-4.92-.97-1.58-2.87-2.49-4.56-1.8m-30.09 3.73c-1.71 2.92 3.29.21 0 0m-109.75 2.45c-2.39.73-.28 3.83 1.57 2.58 1.31-1.22-.09-2.99-1.57-2.58m26.73.68c-1.48 1.38.98 3.46 2.3 2.1 1.28-1.39-1.09-3.62-2.3-2.1m78.85 2.18c-.57 1.63-.01 2.17 1.69 1.62.4-1.65-.16-2.19-1.69-1.62m-71.77 7.27c1.24 2.51 5.13.7 5.18-1.79a45.25 45.25 0 0 0-2.44-2.75c-1.31 1.15-3.85 2.4-2.74 4.54m-92.98 4.63c-1.74 1.56-2.81 5.28-.04 6.44 2.56 1.81 6.1-1.15 6.19-3.87-.38-2.91-3.88-4.84-6.15-2.57m66.82 6.25c-1.87 1.32.84 3.75 2.16 2 1.24-1.38-.95-3.26-2.16-2m18.91 2.21c-2.24 1.06-.09 4.43 1.91 2.89 2.46-.86-.21-5.03-1.91-2.89m-20.89 2.51c.49 1.11.7 2.81 2.43 2.47 1.2-2.02-.94-2.39-2.43-2.47m-73.11 5.09c-1.67 1.01.19 3.42 1.69 2.24 1.49-1.02-.38-3.38-1.69-2.24m20.27 3.13c-1.64 1.18-1.33 4.02.77 4.55 1.53-.25 3-1.46 3.19-3.12-.54-1.58-2.72-2.74-3.96-1.43m42.79 6.72c-.66 1.59-.13 2.15 1.61 1.69.5-1.6-.04-2.17-1.61-1.69m18.34 1.93c-1.39 1.28.63 3.54 2.08 2.26 1.52-1.26-.8-3.83-2.08-2.26m24.73 1.03c-1.57 1.37.95 3.51 2.26 2.07 1.23-1.39-1.05-3.6-2.26-2.07m-103.24 10.13c-.54 1.64.03 2.17 1.71 1.59.38-1.65-.19-2.18-1.71-1.59m-7.61 4.85c1.23.84 2.57 1.75 3.87 2.71.51-.7 1.08-1.39 1.72-2.08-1.68-.72-3.33-1.25-4.91-1.85-.17.31-.51.92-.68 1.22m176.89-.88c-1.76 1.17.46 3.55 1.87 1.89 1.7-1.27-.61-2.68-1.87-1.89m-182.98 6.1c-1.73.56.54 3.88 1.77 2.39 2.11-.85-.43-4.52-1.77-2.39m-10.27 12.81c-.63 1.62-.1 2.18 1.61 1.68.47-1.63-.06-2.19-1.61-1.68m25.33 15.33c-1.68 1.32.83 3.62 2.17 2.06 1.39-1.37-.94-3.46-2.17-2.06m-39.8 11.91c.05.45.13 1.36.18 1.81l1.94.36c.08-.73.23-2.18.31-2.91-.61.19-1.82.56-2.43.74m2.91 4.98c-4.36 2.27-2.8 8.89 1.56 10.11 4.19 1.13 8.14-3.71 6.6-7.64-.63-3.63-5.61-4.44-8.16-2.47m10.08 2.07c-1.8 1.33 1.35 3.15 2.39 1.86 2.05-.66-.53-2.51-.88-3.52-.38.42-1.14 1.25-1.51 1.66m47.58 17.54c-.59 1.6-.03 2.15 1.68 1.66.44-1.62-.12-2.18-1.68-1.66m-41.02 8.96c1.04 1.23 2.07 2.51 3.39 3.6 1.59 1.67 4.04.45 5.99.02 5.22-1.37 5.54-11.6-.52-11.85-4.99-1.38-9.33 3.45-8.86 8.23m-57.89 3.11c.13 2.56 2.82 3.49 4.8 4.49.64-.33 1.94-1.01 2.58-1.34 3.37-1.42 3.3-6.73.47-8.61-3.39-2.66-9.06 1.37-7.85 5.46m114.58 6.7c-4.98.79-6.81 6.13-8.48 10.17-1.28 2.23.12 4.62 1.13 6.67 3.95 4.7 10.56 6.69 16.54 5.93 6.66-1.68 9.05-8.93 10.37-14.87-2.97-3.74-6.21-7.73-10.89-9.25-2.98-1.32-5.86.72-8.67 1.35m-96.43 6.44c.97.95 3.48 2.16 3.74-.15-.7-.72-1.34-1.41-1.93-2.06l-1.81 2.21m44.25 16.73c-.5 1.39-.02 1.85 1.45 1.4.36-1.42-.12-1.89-1.45-1.4m-33.49 1.23c-1.96.87-3.63 3.61-1.6 5.34 1.25 2.21 5.05 1.76 6.07-.52 1.59-2.64-1.9-6.31-4.47-4.82z"/><path d="M6872.42 851.32c16.56-8.52 33.48-16.39 49.83-25.33 3.11 5.58 8.81 9.02 11.98 14.55 18.33 28.48 37.02 56.74 55.18 85.32-.04 2.08-.04 4.16.05 6.26-3.91 7.33-9.23 13.78-13.52 20.88-11.39 16.98-22.8 33.94-34.25 50.87-4.72 7.34-10 14.32-14.3 21.9-.06 1.8-.05 3.62.04 5.45.92 1.55 1.9 3.11 2.99 4.66 0 2.75 0 5.52.01 8.29-.66.85-1.23 1.71-1.72 2.58-7.08 11.36-14.47 22.6-22.67 33.2-4.85 3.38-9.82 6.53-14.96 9.39-.56.05-1.66.13-2.21.17-3.87 1.72-7.52 4.06-9.81 7.67-18 26.68-35.85 53.47-53.92 80.1-2.67 4.05-6.9 6.57-11.04 8.82-2.08.93-4.08 1.94-6.01 3-2.48 1.15-4.91 2.33-7.27 3.57-2.04 1.02-4.05 2.02-6.02 2.99-2.69 1.37-5.36 2.71-8.02 4-.97.48-1.86.98-2.67 1.49-1.48.5-2.84 1.04-4.14 1.61-3.21 2.7-7.22 4.06-10.84 6-52.47 26.29-104.93 52.59-157.38 78.89-2.04 1.02-4.04 2.02-6 2.99-5.61 2.33-10.59 6.6-16.78 7.09-3.5 1.35-7.33.46-10.91.69h-448.34c-1.15-1.02-2.23-2.02-3.26-3.01-1.95-.07-3.9-.15-5.71-.19-2.31-3.63-4.6-7.26-6.89-10.88 91.37-45.83 182.74-91.65 274.1-137.51 2.47-1.21 5.35-.61 8.09-.73 32.32.03 64.64 0 96.97 0 11.32-.2 22.7.37 34.01-.28 15.98-7.41 31.57-15.77 47.42-23.53 18.52-9.42 37.29-18.42 55.65-28.12 11.3-15.76 21.73-32.22 32.7-48.25 12.32-18.35 24.65-36.7 36.98-55.05 2.58-3.77 4.87-7.78 7.99-11.18 8.71-14.56 18.82-28.3 28.04-42.57-5.75-8.6-11.22-17.39-16.85-26.05 8.68 0 17.38-.26 26.1-.17 3.51-.2 7.37.7 10.7-1 38.89-19.51 77.77-39.06 116.66-58.58m-127.31 100.34c-.51 2.2.49 3.2 2.65 2.84-.66-1.17-1.52-2.28-2.65-2.84m3.7 18.92c1.07-.82 2.69-1.61 1.99-3.3-2.44-.93-2.51 1.76-1.99 3.3m-346.52 189.68c-.63 1.59-.09 2.16 1.62 1.7.48-1.63-.06-2.2-1.62-1.7m221.13 10.95c-1.24 1.41 1.19 3.21 2.28 1.67 1.05-1.44-1.37-3.24-2.28-1.67m-48.19 20.24c-.58 1.62-.02 2.17 1.68 1.67.41-1.64-.15-2.19-1.68-1.67m-220.03 13.87c-.55 1.62.03 2.15 1.72 1.59.38-1.64-.19-2.17-1.72-1.59m4.97 4.26c.77-.22 3.7.21 2.63-1.51-.66-1.89-2.26.63-2.63 1.51m1.98 31.08c.49-.13 1.47-.4 1.96-.53.08-.46.25-1.38.34-1.83-1.81-.22-2.62.59-2.3 2.36m-25.98 10.53c-.2 3.35 2.97-1.35 0 0m227.19 15.39c-1.58.85-1.75 3.28-.01 4.13 1.78 1.65 4.99.5 5.74-1.77-.19-2.75-3.74-3.53-5.73-2.36z"/></g></svg>